<svg width="1470" height="1017" viewBox="0 0 1470 1017" fill="none" xmlns="http://www.w3.org/2000/svg">
<g filter="url(#filter0_d_83_68)">
<rect x="4" width="1462" height="1009" fill="url(#paint0_linear_83_68)"/>
<rect x="4.5" y="0.5" width="1461" height="1008" stroke="#F6FEFF"/>
<g clip-path="url(#clip0_83_68)" filter="url(#filter1_d_83_68)">
<path d="M183.578 225.837L164.388 207.078C161.84 204.626 158.439 203.205 154.865 203.099C151.291 202.993 147.808 204.21 145.113 206.507L152.957 214.174C153.751 213.897 154.603 213.812 155.438 213.927C156.273 214.042 157.068 214.354 157.753 214.835C158.438 215.316 158.993 215.953 159.371 216.69C159.749 217.427 159.939 218.243 159.924 219.068V219.312C159.897 219.843 159.784 220.366 159.59 220.862L169.811 230.65C170.304 230.46 170.825 230.349 171.355 230.323C172.427 230.323 173.476 230.634 174.368 231.217C175.26 231.799 175.955 232.627 176.365 233.596C176.776 234.565 176.883 235.631 176.674 236.659C176.465 237.688 175.948 238.632 175.189 239.374C174.431 240.115 173.465 240.62 172.413 240.825C171.361 241.029 170.27 240.924 169.279 240.523C168.288 240.122 167.441 239.442 166.845 238.57C166.249 237.698 165.931 236.673 165.931 235.625C165.958 235.108 166.071 234.598 166.265 234.116L156.878 224.94V246.269C157.786 246.691 158.553 247.355 159.092 248.185C159.631 249.015 159.919 249.976 159.924 250.959C159.924 252.365 159.352 253.713 158.335 254.707C157.318 255.702 155.939 256.26 154.5 256.26C153.062 256.26 151.682 255.702 150.665 254.707C149.648 253.713 149.077 252.365 149.077 250.959C149.084 250.028 149.347 249.117 149.839 248.32C150.331 247.524 151.033 246.871 151.872 246.432V223.676C151.057 223.25 150.371 222.623 149.88 221.858C149.39 221.092 149.113 220.215 149.077 219.312C149.103 218.795 149.216 218.285 149.41 217.804L141.484 210.055L125.172 225.837C123.856 227.118 122.812 228.64 122.1 230.316C121.388 231.992 121.021 233.79 121.021 235.605C121.021 237.42 121.388 239.217 122.1 240.893C122.812 242.569 123.856 244.091 125.172 245.372L144.363 264.172C145.673 265.458 147.23 266.478 148.944 267.175C150.659 267.871 152.497 268.229 154.354 268.229C156.211 268.229 158.049 267.871 159.764 267.175C161.479 266.478 163.036 265.458 164.346 264.172L183.578 245.412C184.894 244.132 185.938 242.61 186.65 240.934C187.362 239.257 187.729 237.46 187.729 235.645C187.729 233.83 187.362 232.033 186.65 230.357C185.938 228.681 184.894 227.159 183.578 225.878V225.837Z" fill="black"/>
</g>
<g clip-path="url(#clip1_83_68)">
<path d="M232.967 509.122C232.622 508.919 232.32 508.646 232.081 508.316C231.97 508.164 231.877 508.003 231.799 507.836H192.496V470.402H245.845V494.845C246.983 494.944 247.939 495.667 248.34 496.657C248.696 496.469 249.092 496.353 249.508 496.317C249.789 496.294 250.069 496.31 250.34 496.362V461.076C250.34 459.08 248.66 457.456 246.594 457.456H191.746C189.681 457.456 188 459.08 188 461.076V508.56C188 510.556 189.681 512.18 191.746 512.18H232.626C232.307 511.556 232.231 510.851 232.419 510.173C232.527 509.783 232.715 509.428 232.967 509.122ZM241.731 463.535C241.731 462.797 242.35 462.198 243.114 462.198H244.497C245.261 462.198 245.88 462.797 245.88 463.535V465.05C245.88 465.788 245.261 466.387 244.497 466.387H243.114C242.35 466.387 241.731 465.788 241.731 465.05V463.535ZM235.299 463.535C235.299 462.797 235.918 462.198 236.682 462.198H238.065C238.829 462.198 239.448 462.797 239.448 463.535V465.05C239.448 465.788 238.829 466.387 238.065 466.387H236.682C235.918 466.387 235.299 465.788 235.299 465.05V463.535ZM228.866 463.535C228.866 462.797 229.486 462.198 230.25 462.198H231.633C232.397 462.198 233.016 462.797 233.016 463.535V465.05C233.016 465.788 232.397 466.387 231.633 466.387H230.25C229.486 466.387 228.866 465.788 228.866 465.05V463.535Z" fill="black"/>
<path d="M254.741 506.573L254.325 504.295C254.269 503.989 253.967 503.784 253.649 503.838L251.553 504.195C251.301 503.624 250.98 503.09 250.598 502.6L251.968 501.023C252.067 500.909 252.115 500.761 252.102 500.612C252.088 500.462 252.014 500.325 251.895 500.228L250.062 498.742C249.944 498.646 249.79 498.599 249.636 498.612C249.481 498.625 249.339 498.697 249.239 498.811L247.871 500.387C247.31 500.111 246.709 499.897 246.08 499.757V497.7C246.08 497.388 245.818 497.135 245.496 497.135H243.102C242.78 497.135 242.518 497.388 242.518 497.7V499.757C241.889 499.897 241.289 500.111 240.727 500.387L239.358 498.811C239.151 498.573 238.783 498.542 238.536 498.742L236.702 500.228C236.584 500.325 236.509 500.462 236.496 500.612C236.482 500.761 236.531 500.909 236.63 501.024L238 502.6C237.619 503.09 237.297 503.624 237.045 504.195L234.949 503.838C234.632 503.784 234.329 503.989 234.273 504.295L233.857 506.573C233.83 506.72 233.865 506.872 233.953 506.995C234.043 507.117 234.178 507.201 234.33 507.227L236.428 507.584C236.462 508.212 236.575 508.82 236.758 509.398L234.914 510.427C234.78 510.501 234.682 510.625 234.642 510.769C234.602 510.913 234.623 511.067 234.7 511.197L235.897 513.2C235.974 513.33 236.102 513.424 236.251 513.463C236.301 513.476 236.351 513.482 236.402 513.482C236.504 513.482 236.604 513.457 236.694 513.406L238.539 512.377C238.973 512.826 239.463 513.224 239.999 513.561L239.27 515.495C239.217 515.636 239.224 515.791 239.289 515.927C239.355 516.062 239.473 516.167 239.619 516.218L241.868 517.009C241.932 517.032 242 517.043 242.067 517.043C242.152 517.043 242.236 517.026 242.315 516.99C242.455 516.927 242.563 516.813 242.616 516.672L243.345 514.738C243.657 514.774 243.975 514.793 244.297 514.793C244.62 514.793 244.938 514.774 245.25 514.738L245.979 516.672C246.032 516.813 246.14 516.927 246.28 516.99C246.358 517.026 246.443 517.043 246.527 517.043C246.595 517.043 246.662 517.032 246.727 517.009L248.976 516.218C249.121 516.167 249.24 516.062 249.305 515.927C249.371 515.791 249.378 515.636 249.325 515.495L248.596 513.561C249.131 513.225 249.621 512.826 250.055 512.377L251.901 513.407C251.99 513.457 252.091 513.482 252.192 513.482C252.243 513.482 252.294 513.476 252.344 513.463C252.493 513.424 252.621 513.33 252.698 513.2L253.895 511.197C253.972 511.068 253.993 510.913 253.953 510.769C253.913 510.625 253.815 510.501 253.681 510.427L251.837 509.399C252.019 508.82 252.132 508.212 252.167 507.584L254.264 507.227C254.417 507.201 254.552 507.117 254.641 506.995C254.733 506.872 254.768 506.72 254.741 506.573ZM244.299 510.193C242.526 510.193 241.088 508.803 241.088 507.09C241.088 505.376 242.526 503.987 244.299 503.987C246.073 503.987 247.51 505.376 247.51 507.09C247.51 508.803 246.073 510.193 244.299 510.193Z" fill="black"/>
<path d="M214.179 491.152C214.179 490.423 213.736 489.752 213.051 489.445L206.779 486.629L213.051 483.813C213.736 483.505 214.179 482.835 214.179 482.105V482.056C214.179 481.409 213.842 480.816 213.279 480.469C212.967 480.276 212.603 480.175 212.228 480.175C211.946 480.175 211.662 480.235 211.408 480.349L201.382 484.854C200.697 485.162 200.254 485.832 200.254 486.562V486.696C200.254 487.425 200.697 488.095 201.382 488.404L211.409 492.91C211.669 493.026 211.945 493.085 212.23 493.085C212.602 493.085 212.964 492.983 213.279 492.789C213.842 492.441 214.179 491.848 214.179 491.202L214.179 491.152Z" fill="black"/>
<path d="M224.072 475.583C223.706 475.099 223.118 474.811 222.498 474.811H222.448C221.597 474.811 220.851 475.337 220.592 476.119L213.985 495.898C213.797 496.469 213.903 497.098 214.269 497.581C214.634 498.065 215.223 498.354 215.842 498.354H215.892C216.743 498.354 217.489 497.827 217.748 497.046L224.353 477.268C224.543 476.698 224.438 476.068 224.072 475.583Z" fill="black"/>
<path d="M236.958 484.854L226.931 480.349C226.678 480.235 226.395 480.175 226.112 480.175C225.738 480.175 225.374 480.276 225.063 480.468C224.498 480.816 224.161 481.41 224.161 482.056V482.105C224.161 482.834 224.604 483.505 225.289 483.814L231.561 486.629L225.289 489.445C224.604 489.752 224.161 490.423 224.161 491.153V491.202C224.161 491.848 224.498 492.441 225.062 492.789C225.376 492.983 225.738 493.085 226.111 493.085C226.395 493.085 226.671 493.026 226.932 492.91L236.959 488.404C237.644 488.095 238.086 487.425 238.086 486.697V486.562C238.086 485.832 237.643 485.162 236.958 484.854Z" fill="black"/>
</g>
<g clip-path="url(#clip2_83_68)">
<path d="M234.984 657.136C234.908 656.72 234.497 656.442 234.066 656.515L231.22 657C230.879 656.225 230.442 655.5 229.925 654.836L231.784 652.696C231.919 652.54 231.984 652.339 231.966 652.137C231.948 651.934 231.847 651.748 231.686 651.617L229.197 649.599C229.036 649.468 228.828 649.405 228.618 649.423C228.409 649.44 228.216 649.538 228.08 649.693L226.223 651.832C225.461 651.457 224.646 651.167 223.792 650.977V648.185C223.792 647.762 223.437 647.419 222.999 647.419H219.751C219.313 647.419 218.959 647.762 218.959 648.185V650.977C218.104 651.167 217.289 651.457 216.527 651.832L214.67 649.693C214.388 649.369 213.889 649.327 213.554 649.599L211.065 651.617C210.904 651.748 210.803 651.934 210.785 652.137C210.767 652.339 210.832 652.54 210.967 652.696L212.826 654.836C212.308 655.5 211.872 656.225 211.53 657L208.685 656.515C208.255 656.442 207.843 656.72 207.767 657.136L207.203 660.228C207.167 660.428 207.214 660.634 207.334 660.8C207.455 660.966 207.639 661.079 207.846 661.114L210.693 661.6C210.739 662.452 210.893 663.277 211.14 664.062L208.638 665.458C208.456 665.56 208.323 665.726 208.269 665.923C208.215 666.119 208.243 666.328 208.348 666.504L209.972 669.223C210.078 669.399 210.251 669.527 210.454 669.579C210.521 669.597 210.59 669.605 210.659 669.605C210.797 669.605 210.933 669.571 211.055 669.503L213.56 668.106C214.149 668.714 214.814 669.255 215.54 669.713L214.551 672.337C214.479 672.528 214.489 672.739 214.578 672.923C214.666 673.107 214.827 673.249 215.025 673.319L218.078 674.392C218.165 674.423 218.257 674.439 218.349 674.439C218.463 674.439 218.578 674.414 218.683 674.367C218.874 674.281 219.021 674.126 219.093 673.935L220.082 671.31C220.506 671.359 220.937 671.385 221.375 671.385C221.813 671.385 222.245 671.359 222.669 671.31L223.657 673.935C223.73 674.126 223.877 674.281 224.067 674.367C224.173 674.414 224.287 674.439 224.402 674.439C224.494 674.439 224.586 674.423 224.673 674.392L227.726 673.319C227.924 673.249 228.084 673.107 228.173 672.923C228.262 672.738 228.271 672.528 228.199 672.337L227.21 669.713C227.937 669.255 228.601 668.715 229.191 668.106L231.696 669.503C231.817 669.571 231.954 669.605 232.092 669.605C232.16 669.605 232.229 669.597 232.297 669.579C232.5 669.527 232.673 669.399 232.778 669.223L234.402 666.504C234.507 666.328 234.536 666.119 234.482 665.923C234.427 665.726 234.294 665.559 234.112 665.458L231.61 664.062C231.857 663.277 232.011 662.452 232.057 661.6L234.905 661.114C235.112 661.079 235.295 660.966 235.416 660.8C235.537 660.634 235.584 660.428 235.547 660.228L234.984 657.136ZM221.375 665.14C218.968 665.14 217.017 663.255 217.017 660.929C217.017 658.603 218.968 656.718 221.375 656.718C223.782 656.718 225.734 658.603 225.734 660.929C225.734 663.255 223.782 665.14 221.375 665.14Z" fill="black"/>
<path d="M249.191 638.027H193.56C190.494 638.027 188 640.437 188 643.399V678.434C188 681.397 190.494 683.807 193.56 683.807H211.484L208.082 691.056C207.731 691.805 207.797 692.674 208.258 693.365C208.719 694.056 209.511 694.473 210.362 694.473H232.389C232.389 694.473 232.391 694.473 232.392 694.473C233.774 694.473 234.895 693.391 234.895 692.055C234.895 691.653 234.794 691.273 234.614 690.939L231.266 683.807H249.19C252.256 683.807 254.75 681.397 254.75 678.434V643.399C254.75 640.437 252.257 638.027 249.191 638.027ZM249.744 678.435C249.744 678.729 249.496 678.969 249.191 678.969H193.56C193.255 678.969 193.006 678.729 193.006 678.435V643.399C193.006 643.104 193.255 642.864 193.56 642.864H249.191C249.496 642.864 249.744 643.104 249.744 643.399L249.744 678.435Z" fill="black"/>
</g>
<path d="M114.875 591.25V553.75" stroke="black" stroke-width="6.51562" stroke-linecap="round"/>
<path d="M166.375 553.75V591.25" stroke="black" stroke-width="6.51562" stroke-linecap="round"/>
<path d="M140.625 566.25C154.846 566.25 166.375 560.654 166.375 553.75C166.375 546.846 154.846 541.25 140.625 541.25C126.404 541.25 114.875 546.846 114.875 553.75C114.875 560.654 126.404 566.25 140.625 566.25Z" stroke="black" stroke-width="6.51562"/>
<path d="M166.375 572.5C166.375 579.403 154.846 585 140.625 585C126.404 585 114.875 579.403 114.875 572.5" stroke="black" stroke-width="6.51562"/>
<path d="M166.375 591.25C166.375 598.153 154.846 603.75 140.625 603.75C126.404 603.75 114.875 598.153 114.875 591.25" stroke="black" stroke-width="6.51562"/>
<path d="M1351.06 639.138V665.357H1351.09C1351.5 670.499 1359.95 674.614 1370.35 674.614C1380.74 674.614 1389.19 670.504 1389.6 665.357H1389.64V639.138H1351.06Z" stroke="#231F20" stroke-width="6.2449" stroke-linecap="round" stroke-linejoin="round"/>
<path d="M1403.39 643.482L1369.7 659.963L1336 643.482L1369.7 627L1403.39 643.482Z" fill="black" stroke="#231F20" stroke-width="6.2449" stroke-linecap="round" stroke-linejoin="round"/>
<path d="M1336 666.498V644.784" stroke="#231F20" stroke-width="6.2449" stroke-linecap="round" stroke-linejoin="round"/>
<path d="M1291.75 410.016C1291.75 413.769 1288.6 416.812 1284.72 416.812C1280.84 416.812 1277.69 413.769 1277.69 410.016C1277.69 406.262 1280.84 403.219 1284.72 403.219C1288.6 403.219 1291.75 406.262 1291.75 410.016Z" stroke="black" stroke-width="5.71875"/>
<path d="M1319.88 404.578C1319.88 408.332 1316.73 411.375 1312.84 411.375C1308.96 411.375 1305.81 408.332 1305.81 404.578C1305.81 400.824 1308.96 397.781 1312.84 397.781C1316.73 397.781 1319.88 400.824 1319.88 404.578Z" stroke="black" stroke-width="5.71875"/>
<path d="M1319.88 378.75L1291.75 389.625" stroke="black" stroke-width="5.71875" stroke-linecap="round"/>
<path d="M1317.77 389.626C1317.77 390.752 1318.71 391.665 1319.88 391.665C1321.04 391.665 1321.98 390.752 1321.98 389.626H1317.77ZM1293.86 408.657V381.055H1289.64V408.657H1293.86ZM1299.47 372.904L1305.1 370.629L1303.47 366.867L1297.84 369.142L1299.47 372.904ZM1321.98 378.779C1321.98 375.152 1321.99 372.2 1321.65 369.967C1321.3 367.694 1320.52 365.664 1318.54 364.385L1316.2 367.78C1316.72 368.114 1317.2 368.739 1317.47 370.564C1317.76 372.428 1317.77 375.018 1317.77 378.779H1321.98ZM1305.1 370.629C1308.69 369.176 1311.16 368.181 1313.05 367.716C1314.9 367.26 1315.68 367.446 1316.2 367.78L1318.54 364.385C1316.55 363.105 1314.31 363.197 1312.01 363.764C1309.74 364.322 1306.93 365.466 1303.47 366.867L1305.1 370.629ZM1293.86 381.055C1293.86 379.257 1293.86 378.07 1293.96 377.157C1294.06 376.294 1294.23 375.868 1294.45 375.554L1290.94 373.294C1290.21 374.348 1289.91 375.484 1289.77 376.717C1289.64 377.9 1289.64 379.345 1289.64 381.055H1293.86ZM1297.84 369.142C1296.21 369.803 1294.83 370.358 1293.75 370.933C1292.63 371.533 1291.66 372.24 1290.94 373.294L1294.45 375.554C1294.66 375.239 1295.01 374.923 1295.79 374.503C1296.62 374.059 1297.75 373.599 1299.47 372.904L1297.84 369.142ZM1321.98 389.626V378.779H1317.77V389.626H1321.98Z" fill="black"/>
<path d="M1277.69 386.906V374.672V362.438" stroke="black" stroke-width="5.71875" stroke-linecap="round"/>
<path d="M1270.66 392.344C1274.54 392.344 1277.69 389.301 1277.69 385.547C1277.69 381.793 1274.54 378.75 1270.66 378.75C1266.77 378.75 1263.62 381.793 1263.62 385.547C1263.62 389.301 1266.77 392.344 1270.66 392.344Z" stroke="black" stroke-width="5.71875"/>
<path d="M1286.12 370.594C1282.63 370.594 1277.69 368.068 1277.69 362.438" stroke="black" stroke-width="5.71875" stroke-linecap="round"/>
<path d="M1311.4 720.325H1316.33C1317.69 720.325 1318.8 721.393 1318.8 722.708V746.542C1318.8 747.857 1317.69 748.925 1316.33 748.925H1311.4C1310.04 748.925 1308.93 747.857 1308.93 746.542V722.708C1308.93 721.393 1310.04 720.325 1311.4 720.325Z" stroke="black" stroke-width="6.66667"/>
<path d="M1301.53 710.792H1306.47C1307.83 710.792 1308.93 711.859 1308.93 713.175V756.075C1308.93 757.391 1307.83 758.458 1306.47 758.458H1301.53C1300.17 758.458 1299.07 757.391 1299.07 756.075V713.175C1299.07 711.859 1300.17 710.792 1301.53 710.792Z" stroke="black" stroke-width="6.66667"/>
<path d="M1267 710.792H1271.93C1273.3 710.792 1274.4 711.859 1274.4 713.175V756.075C1274.4 757.391 1273.3 758.458 1271.93 758.458H1267C1265.64 758.458 1264.53 757.391 1264.53 756.075V713.175C1264.53 711.859 1265.64 710.792 1267 710.792Z" stroke="black" stroke-width="6.66667"/>
<path d="M1257.13 720.325H1262.07C1263.43 720.325 1264.53 721.393 1264.53 722.708V746.542C1264.53 747.857 1263.43 748.925 1262.07 748.925H1257.13C1255.77 748.925 1254.67 747.857 1254.67 746.542V722.708C1254.67 721.393 1255.77 720.325 1257.13 720.325Z" stroke="black" stroke-width="6.66667"/>
<path d="M1318.8 734.625H1326.2" stroke="black" stroke-width="6.66667"/>
<path d="M1274.4 734.625H1299.07" stroke="black" stroke-width="6.66667"/>
<path d="M1247.27 734.625H1254.67" stroke="black" stroke-width="6.66667"/>
<path d="M1352.08 506.556C1351.54 505.856 1350.93 505.225 1350.16 504.765C1349.72 504.504 1349.22 504.42 1348.73 504.486C1348.6 504.458 1348.47 504.44 1348.33 504.422C1347.9 504.376 1347.46 504.343 1347.04 504.343C1346.45 504.343 1345.86 504.402 1345.27 504.558C1343.64 504.997 1342.2 506.052 1341.47 507.57C1340.97 508.633 1340.68 509.767 1340.77 510.939C1340.82 511.639 1341 512.212 1341.35 512.817C1341.55 513.134 1341.81 513.433 1342.04 513.711C1342.35 514.107 1342.77 514.465 1343.2 514.738C1344.45 515.551 1346.08 515.888 1347.55 515.727C1347.92 515.689 1348.26 515.64 1348.61 515.551C1348.98 515.459 1349.38 515.234 1349.7 515.037C1350.09 514.807 1350.45 514.493 1350.78 514.197C1351.2 513.821 1351.57 513.379 1351.87 512.914C1352.19 512.449 1352.4 511.908 1352.61 511.389C1352.75 511.047 1352.87 510.689 1352.94 510.326C1353.07 509.611 1353.06 509.156 1352.95 508.444C1352.84 507.751 1352.5 507.115 1352.08 506.556ZM1348.57 509.731C1348.5 510.035 1348.42 510.331 1348.31 510.623C1348.25 510.743 1348.18 510.858 1348.11 510.973C1347.94 511.149 1347.77 511.31 1347.59 511.468C1347.49 511.53 1347.39 511.588 1347.29 511.642C1347.29 511.645 1347.28 511.647 1347.27 511.647C1347.02 511.665 1346.77 511.67 1346.53 511.657C1346.29 511.606 1346.07 511.55 1345.84 511.476C1345.75 511.427 1345.67 511.376 1345.58 511.323C1345.48 511.231 1345.39 511.136 1345.3 511.037C1345.22 510.916 1345.14 510.796 1345.07 510.671C1345.06 510.477 1345.06 510.285 1345.07 510.091C1345.13 509.818 1345.2 509.552 1345.29 509.289C1345.35 509.174 1345.42 509.062 1345.49 508.952C1345.6 508.84 1345.71 508.735 1345.83 508.63C1345.98 508.538 1346.13 508.454 1346.29 508.377C1346.49 508.308 1346.69 508.252 1346.89 508.206C1347.06 508.198 1347.23 508.203 1347.4 508.211C1347.54 508.352 1347.69 508.474 1347.87 508.576C1347.88 508.584 1347.9 508.592 1347.91 508.599C1348.03 508.712 1348.15 508.829 1348.27 508.952C1348.36 509.082 1348.44 509.213 1348.52 509.35C1348.54 509.414 1348.56 509.478 1348.58 509.542C1348.58 509.603 1348.57 509.667 1348.57 509.731ZM1362.45 495.335C1361.69 494.694 1360.85 494.265 1359.91 493.941C1359.52 493.808 1359.11 493.828 1358.74 493.956C1358.41 493.69 1358 493.522 1357.55 493.522C1357.53 493.522 1357.5 493.522 1357.47 493.524C1356.55 493.562 1355.75 493.905 1354.93 494.278C1354.24 494.592 1353.65 495.011 1353.1 495.524C1352.58 496.015 1352.21 496.641 1351.91 497.277C1351.7 497.752 1351.51 498.217 1351.4 498.726C1351.33 499.101 1351.28 499.489 1351.23 499.87C1351.19 500.148 1351.17 500.422 1351.19 500.703C1351.23 501.29 1351.41 501.809 1351.66 502.333C1352.09 503.224 1352.9 503.883 1353.71 504.417C1354.42 504.872 1355.24 505.145 1356.05 505.375C1356.81 505.595 1357.61 505.776 1358.4 505.707C1359.53 505.61 1360.7 505.248 1361.64 504.632C1362.82 503.858 1363.66 502.489 1364.05 501.173C1364.21 500.639 1364.26 500.044 1364.32 499.494C1364.38 499.009 1364.37 498.544 1364.26 498.061C1364.03 497.037 1363.25 496.015 1362.45 495.335ZM1355.27 500.56C1355.27 500.557 1355.27 500.552 1355.26 500.55C1355.27 500.555 1355.27 500.56 1355.27 500.56ZM1355.28 500.565C1355.31 500.588 1355.35 500.611 1355.37 500.634C1355.34 500.611 1355.31 500.588 1355.28 500.565ZM1360.14 499.5C1360.1 499.76 1360.04 500.021 1359.96 500.271C1359.8 500.57 1359.63 500.854 1359.45 501.132C1359.41 501.173 1359.37 501.214 1359.33 501.252C1359.15 501.354 1358.97 501.446 1358.79 501.531C1358.62 501.589 1358.44 501.638 1358.26 501.676C1358.15 501.681 1358.04 501.684 1357.92 501.679C1357.4 501.569 1356.89 501.431 1356.38 501.255C1356.11 501.117 1355.86 500.966 1355.61 500.8C1355.54 500.734 1355.47 500.665 1355.41 500.596C1355.36 500.524 1355.32 500.45 1355.27 500.373C1355.27 500.166 1355.29 499.962 1355.31 499.755C1355.37 499.441 1355.46 499.139 1355.57 498.843C1355.67 498.651 1355.77 498.467 1355.89 498.286C1356 498.176 1356.11 498.072 1356.22 497.972C1356.36 497.893 1356.49 497.821 1356.63 497.757C1356.92 497.642 1357.21 497.538 1357.52 497.456C1357.69 497.446 1357.87 497.415 1358.03 497.366C1358.2 497.502 1358.39 497.607 1358.61 497.701C1358.6 497.699 1358.59 497.696 1358.59 497.693C1358.89 497.831 1359.17 497.985 1359.44 498.163C1359.63 498.33 1359.81 498.506 1359.98 498.695C1360.04 498.789 1360.1 498.886 1360.16 498.986C1360.16 499.157 1360.16 499.328 1360.14 499.5ZM1414.06 486.231C1413.95 486.925 1413.72 487.585 1413.47 488.241C1413.27 488.765 1413.05 489.311 1412.74 489.787C1412.14 490.717 1411.43 491.6 1410.65 492.395C1409.08 493.989 1407.1 495.356 1404.9 496.01C1403.8 496.337 1402.69 496.587 1401.54 496.666C1401.01 496.697 1400.48 496.689 1399.96 496.705C1399.61 497.228 1399.28 497.762 1398.9 498.258C1398.24 499.104 1397.56 499.942 1396.84 500.744C1396.01 501.669 1395.16 502.588 1394.08 503.245C1393.29 503.72 1392.51 504.218 1391.7 504.663C1390.74 505.191 1389.69 505.508 1388.6 505.667C1387.54 505.817 1386.47 505.96 1385.39 505.917C1384.33 505.874 1383.29 505.779 1382.29 505.429C1381.75 505.237 1381.2 505.043 1380.7 504.783C1380.43 504.642 1380.16 504.507 1379.88 504.384C1379.61 504.277 1379.33 504.167 1379.08 504.029C1378.85 503.896 1378.63 503.766 1378.4 503.643C1377.87 503.365 1377.33 503.104 1376.82 502.808C1376.37 502.545 1375.94 502.233 1375.49 501.95C1375.26 502.1 1375.01 502.236 1374.75 502.348C1374.06 502.657 1373.34 502.925 1372.6 503.13C1370.82 503.623 1368.95 504.2 1367.07 503.958C1366.71 503.958 1366.38 503.871 1366.07 503.694C1365.77 503.523 1365.53 503.293 1365.35 503C1365.08 502.555 1365.01 502.011 1365.15 501.513C1365.45 500.465 1366.54 499.924 1367.6 500.159C1367.7 500.184 1367.81 500.207 1367.91 500.228C1368.23 500.24 1368.55 500.22 1368.86 500.194C1370.07 499.988 1371.26 499.632 1372.39 499.193C1372.69 499.065 1372.98 498.925 1373.25 498.751C1373.38 498.636 1373.5 498.513 1373.63 498.391C1374.26 497.775 1375.2 497.443 1376.07 497.734C1376.88 498.013 1377.55 498.58 1378.27 499.007C1379.11 499.505 1380 499.898 1380.86 500.353C1381.48 500.672 1382.12 500.986 1382.76 501.265C1383.34 501.479 1383.92 501.669 1384.53 501.783C1385.54 501.865 1386.55 501.85 1387.56 501.737C1388.22 501.64 1388.87 501.518 1389.5 501.298C1389.96 501.081 1390.4 500.833 1390.84 500.573C1391.36 500.263 1391.89 499.99 1392.39 499.668C1393.47 498.749 1394.4 497.632 1395.29 496.534C1395.64 496.061 1395.97 495.578 1396.28 495.077C1396.81 494.211 1397.28 493.159 1398.39 492.896C1398.86 492.788 1399.34 492.804 1399.82 492.817C1399.99 492.822 1400.17 492.827 1400.35 492.822C1400.89 492.817 1401.43 492.801 1401.97 492.758C1402.79 492.61 1403.58 492.38 1404.36 492.109C1405.18 491.736 1405.94 491.284 1406.67 490.765C1407.43 490.126 1408.1 489.444 1408.72 488.691C1409.07 488.216 1409.37 487.738 1409.63 487.219C1409.87 486.581 1410.07 485.947 1410.19 485.28C1410.25 484.422 1410.25 483.561 1410.19 482.703C1409.99 481.576 1409.63 480.493 1409.19 479.43C1408.9 478.794 1408.59 478.158 1408.17 477.583C1407.77 477.013 1407.36 476.444 1406.95 475.882C1406.85 475.769 1406.75 475.662 1406.63 475.562C1406.43 475.419 1406.22 475.279 1406.02 475.133C1405.8 474.972 1405.53 474.801 1405.34 474.589C1404.79 473.968 1404.53 473.189 1404.74 472.374C1404.92 471.738 1405.36 471.166 1405.67 470.588C1406 469.993 1406.31 469.39 1406.6 468.774C1406.92 468.005 1407.17 467.236 1407.33 466.427C1407.45 465.121 1407.32 463.788 1407.17 462.487C1407.09 462.079 1407 461.685 1406.86 461.294C1406.74 461.075 1406.61 460.868 1406.46 460.666C1406.13 460.293 1405.78 459.95 1405.4 459.631C1404.55 459.044 1403.65 458.589 1402.7 458.183C1401.45 457.697 1400.16 457.393 1398.83 457.176C1397.6 457.046 1396.36 457.069 1395.12 457.199C1394.8 457.255 1394.5 457.332 1394.19 457.439C1393.59 457.715 1393 457.978 1392.31 457.779C1391.53 457.554 1390.98 456.977 1390.74 456.223C1390.61 455.797 1390.52 455.383 1390.36 454.969C1389.93 454.036 1389.45 453.15 1388.83 452.317C1388.25 451.64 1387.62 451.03 1386.92 450.462C1386.38 450.089 1385.82 449.793 1385.23 449.525C1384.56 449.297 1383.88 449.126 1383.2 448.94C1382.6 448.776 1382.01 448.62 1381.4 448.518C1380.21 448.421 1379.03 448.406 1377.84 448.503C1377.36 448.577 1376.88 448.664 1376.41 448.769C1375.9 448.878 1375.4 449.073 1374.92 449.259C1374.43 449.476 1373.94 449.704 1373.46 449.962C1372.95 450.245 1372.47 450.567 1371.99 450.894C1371.12 451.566 1370.3 452.271 1369.57 453.078C1369.37 453.357 1369.18 453.643 1369.02 453.947C1368.79 454.363 1368.64 454.818 1368.39 455.229C1368.2 455.544 1367.99 455.835 1367.76 456.124C1367.36 456.609 1366.76 456.9 1366.12 456.916C1365.72 456.926 1365.4 456.806 1365.07 456.66C1364.68 456.532 1364.27 456.463 1363.88 456.382C1363.47 456.302 1363.06 456.228 1362.65 456.162C1361.34 456.037 1360.03 456.042 1358.73 456.159C1358.05 456.269 1357.39 456.425 1356.74 456.655C1356.2 456.916 1355.68 457.197 1355.19 457.526C1354.8 457.84 1354.47 458.183 1354.14 458.548C1353.68 459.182 1353.3 459.833 1352.96 460.535C1352.57 461.578 1352.31 462.638 1352.13 463.734C1352.04 464.597 1352.01 465.443 1352.08 466.314C1352.17 466.894 1352.32 467.448 1352.53 468.003C1352.79 468.532 1353.07 469.053 1353.37 469.559C1353.68 470.103 1354.07 470.542 1354.28 471.148C1354.57 471.988 1354.33 472.928 1353.68 473.554C1353.41 473.817 1353.11 473.965 1352.78 474.121C1352.2 474.4 1351.6 474.694 1351.05 475.023C1350.64 475.371 1350.26 475.746 1349.9 476.145C1349.64 476.505 1349.41 476.878 1349.21 477.274C1349.09 477.616 1349.03 477.966 1348.97 478.321C1348.86 479.468 1348.94 480.595 1349.08 481.732C1349.3 483.106 1349.62 484.435 1350.11 485.745C1350.28 486.128 1350.47 486.499 1350.71 486.849C1351.19 487.388 1351.74 487.835 1352.31 488.279C1352.75 488.581 1353.19 488.839 1353.68 489.064C1353.87 489.138 1354.06 489.212 1354.25 489.286C1354.79 489.485 1355.22 489.736 1355.53 490.239C1355.82 490.719 1355.9 491.304 1355.74 491.843C1355.6 492.362 1355.24 492.817 1354.76 493.085C1354.32 493.34 1353.62 493.491 1353.11 493.294C1352.21 492.947 1351.34 492.589 1350.55 492.027C1349.94 491.606 1349.39 491.123 1348.84 490.637C1348.5 490.333 1348.17 490.022 1347.88 489.674C1347.59 489.322 1347.26 488.974 1347.03 488.583C1346.8 488.193 1346.62 487.786 1346.44 487.37C1345.71 485.633 1345.33 483.804 1345.06 481.949C1344.91 480.932 1344.79 479.905 1344.81 478.873C1344.83 478.262 1344.92 477.649 1345.02 477.049C1345.17 476.076 1345.57 475.102 1346.18 474.305C1346.63 473.707 1347.1 473.145 1347.64 472.622C1348.08 472.19 1348.58 471.73 1349.13 471.434C1349.28 471.349 1349.44 471.265 1349.59 471.181C1349.26 470.545 1348.91 469.924 1348.63 469.257C1348.32 468.519 1348.17 467.765 1348.07 466.973C1347.98 466.263 1347.92 465.566 1347.95 464.85C1348 463.747 1348.17 462.607 1348.44 461.534C1348.71 460.421 1349.11 459.378 1349.58 458.331C1350.03 457.347 1350.72 456.453 1351.46 455.659C1352.37 454.678 1353.5 453.909 1354.74 453.375C1355.75 452.94 1356.77 452.636 1357.87 452.491C1359 452.34 1360.12 452.276 1361.26 452.325C1362.38 452.368 1363.47 452.516 1364.57 452.721C1364.8 452.764 1365.03 452.808 1365.26 452.851C1365.28 452.82 1365.29 452.792 1365.31 452.762C1365.41 452.542 1365.5 452.307 1365.62 452.092C1365.85 451.691 1366.1 451.323 1366.39 450.958C1367.07 450.102 1367.89 449.397 1368.71 448.679C1369.5 447.995 1370.38 447.348 1371.3 446.845C1372.26 446.326 1373.25 445.905 1374.27 445.519C1375.84 444.934 1377.54 444.737 1379.22 444.737C1379.73 444.737 1380.24 444.755 1380.74 444.786C1381.85 444.85 1382.95 445.031 1384.02 445.32C1385.04 445.593 1386.04 445.866 1387.02 446.273C1387.45 446.449 1387.9 446.625 1388.28 446.878C1388.78 447.192 1389.24 447.535 1389.7 447.9C1390.43 448.493 1391.06 449.157 1391.65 449.885C1392.33 450.718 1392.86 451.607 1393.35 452.56C1393.53 452.905 1393.71 453.247 1393.87 453.6C1394.17 453.551 1394.48 453.515 1394.78 453.495C1395.22 453.467 1395.65 453.441 1396.09 453.441C1397.06 453.431 1398.01 453.456 1398.98 453.564C1400.11 453.686 1401.23 453.901 1402.33 454.21C1402.81 454.343 1403.29 454.499 1403.74 454.685C1404.32 454.915 1404.91 455.125 1405.45 455.408C1406.66 456.029 1407.83 456.76 1408.78 457.723C1409.59 458.53 1410.25 459.429 1410.62 460.51C1410.82 461.108 1410.91 461.703 1410.99 462.324C1411.1 463.223 1411.16 464.13 1411.2 465.034C1411.26 466.105 1411.16 467.178 1410.87 468.215C1410.57 469.285 1410.1 470.317 1409.61 471.316C1409.41 471.73 1409.18 472.134 1408.96 472.537C1409.19 472.696 1409.41 472.864 1409.59 473.074C1409.94 473.485 1410.26 473.907 1410.57 474.346C1410.93 474.844 1411.29 475.34 1411.63 475.859C1412.38 477.036 1412.94 478.334 1413.43 479.645C1413.81 480.677 1414.1 481.704 1414.2 482.8C1414.3 483.939 1414.24 485.094 1414.06 486.231ZM1366.98 468.491C1366.98 467.469 1367.89 466.513 1368.97 466.559C1370.63 466.623 1372.29 466.726 1373.96 466.657C1374.66 466.626 1375.36 466.565 1376.06 466.539C1376.77 466.513 1377.48 466.524 1378.19 466.529C1379.58 466.529 1380.97 466.45 1382.37 466.416C1383.13 466.396 1383.91 466.358 1384.69 466.358C1384.99 466.358 1385.29 466.363 1385.59 466.378C1386.27 466.411 1386.88 466.71 1387.24 467.303C1387.5 467.735 1387.57 468.256 1387.43 468.741C1387.3 469.206 1386.98 469.612 1386.55 469.852C1386.12 470.1 1385.69 470.128 1385.23 470.067C1384.78 470.041 1384.33 470.07 1383.89 470.075C1383.3 470.08 1382.71 470.118 1382.12 470.149C1381.41 470.182 1380.69 470.246 1379.98 470.256C1379.31 470.261 1378.64 470.256 1377.96 470.261C1376.57 470.277 1375.18 470.282 1373.79 470.345C1372.18 470.42 1370.57 470.458 1368.96 470.43C1367.88 470.404 1366.98 469.559 1366.98 468.491ZM1366.45 475.486C1366.45 474.453 1367.37 473.465 1368.48 473.518C1370.11 473.593 1371.75 473.715 1373.39 473.695C1374.91 473.674 1376.43 473.631 1377.95 473.626C1379.41 473.621 1380.88 473.6 1382.34 473.567C1383.07 473.552 1383.81 473.513 1384.55 473.503C1385.14 473.493 1385.74 473.503 1386.33 473.439C1386.36 473.434 1386.4 473.432 1386.45 473.432C1386.91 473.432 1387.41 473.7 1387.72 474.001C1388.08 474.359 1388.29 474.847 1388.29 475.355C1388.29 475.859 1388.08 476.354 1387.72 476.709C1387.39 477.031 1386.81 477.33 1386.33 477.271C1385.71 477.192 1385.08 477.238 1384.46 477.246C1383.75 477.261 1383.04 477.271 1382.34 477.266C1380.88 477.251 1379.41 477.276 1377.95 477.294C1376.43 477.315 1374.91 477.44 1373.39 477.437C1371.75 477.437 1370.11 477.501 1368.48 477.453C1367.37 477.422 1366.45 476.587 1366.45 475.486ZM1386.36 480.981C1387.44 480.981 1388.33 482.031 1388.33 483.04C1388.33 484.179 1387.36 485.066 1386.22 485.094C1385.68 485.104 1385.13 485.147 1384.6 485.201C1384.04 485.255 1383.49 485.255 1382.93 485.25C1381.52 485.229 1380.1 485.239 1378.7 485.158C1376.77 485.045 1374.84 485.066 1372.9 485.083C1371.56 485.094 1370.22 485.109 1368.87 485.073C1367.74 485.043 1366.8 484.174 1366.8 483.053C1366.8 481.982 1367.74 480.988 1368.87 481.032C1370.66 481.101 1372.44 481.188 1374.22 481.228C1375.76 481.259 1377.27 481.234 1378.81 481.149C1380.2 481.075 1381.61 481.08 1383.01 481.065C1384.08 481.05 1385.15 481.065 1386.22 480.981C1386.27 480.983 1386.31 480.981 1386.36 480.981Z" fill="#111918"/>
<path d="M1264.53 554.531C1264.53 537.303 1278.84 523.336 1296.5 523.336C1314.16 523.336 1328.47 537.303 1328.47 554.531V581.29C1328.47 582.466 1327.99 583.595 1327.14 584.427C1326.28 585.259 1325.13 585.727 1323.92 585.727H1269.08C1267.87 585.727 1266.72 585.259 1265.86 584.427C1265.01 583.595 1264.53 582.466 1264.53 581.29V554.531Z" stroke="black" stroke-width="7.91159" stroke-linejoin="round"/>
<path d="M1279.06 528.062L1272.28 515.773M1313.94 528.062L1320.72 515.773" stroke="black" stroke-width="7.91159" stroke-linecap="round" stroke-linejoin="round"/>
<path d="M1296.5 557.367H1265.5L1288.75 570.602L1296.5 557.367ZM1296.5 557.367H1327.5L1304.25 570.602L1296.5 557.367Z" stroke="black" stroke-width="7.91159" stroke-linejoin="round"/>
<path d="M1278.54 544.413C1278.98 545.449 1279.72 546.335 1280.68 546.958C1281.63 547.582 1282.76 547.914 1283.91 547.914C1285.06 547.914 1286.18 547.582 1287.14 546.958C1288.09 546.335 1288.84 545.449 1289.28 544.413M1303.72 544.413C1304.02 545.101 1304.44 545.726 1304.98 546.253C1305.52 546.78 1306.16 547.198 1306.87 547.482C1307.57 547.768 1308.33 547.914 1309.09 547.914C1309.86 547.914 1310.61 547.767 1311.32 547.482C1312.02 547.197 1312.66 546.78 1313.2 546.253C1313.74 545.726 1314.17 545.101 1314.46 544.413" stroke="black" stroke-width="7.91159" stroke-linecap="round" stroke-linejoin="round"/>
<path d="M1411.01 311.906L1409.63 294.208L1415.12 284.752C1415.95 284.92 1416.78 284.986 1417.65 284.986C1424.49 284.986 1430.06 279.606 1430.06 272.987C1430.06 271.281 1429.68 269.678 1429.06 268.242C1430.09 266.904 1430.68 265.167 1430.68 263.293C1430.68 258.348 1426.53 254.336 1421.42 254.336C1419.96 254.336 1418.58 254.67 1417.33 255.239C1417.07 254.239 1416.59 253.315 1415.95 252.509C1415.88 254.439 1415.37 256.33 1414.43 258.013C1414.98 259.619 1415.26 261.322 1415.26 263.059C1415.26 271.916 1407.79 279.137 1398.63 279.137C1398.18 279.137 1397.77 279.104 1397.32 279.07L1395.65 281.938C1396.89 282.457 1398.26 282.745 1399.7 282.745C1400.19 282.745 1400.67 282.711 1401.12 282.644L1405.54 290.568C1405.45 294.925 1404.34 308.497 1404.1 311.354C1400.89 311.157 1397.5 311.016 1393.98 310.943C1393.75 310.939 1393.52 310.936 1393.28 310.929C1392.58 310.919 1391.87 310.909 1391.16 310.902L1389.67 286.723L1395.79 276.163C1396.69 276.33 1397.63 276.43 1398.59 276.43C1406.27 276.43 1412.46 270.414 1412.46 263.026C1412.46 261.155 1412.05 259.352 1411.32 257.712C1412.46 256.109 1413.12 254.168 1413.12 252.064C1413.12 246.549 1408.48 242.072 1402.78 242.072C1401.16 242.072 1399.63 242.407 1398.25 243.073C1397.25 239.265 1393.34 236.26 1388.85 236.26C1384.46 236.26 1380.89 239.097 1379.86 242.771C1378.96 242.44 1377.99 242.273 1376.95 242.273C1372.32 242.273 1368.59 245.913 1368.59 250.36C1368.59 252.231 1369.24 253.968 1370.35 255.34C1368.41 257.31 1367.24 259.954 1367.24 262.895C1367.24 268.975 1372.32 273.891 1378.61 273.891C1379.16 273.891 1379.68 273.857 1380.2 273.79L1385.15 282.644C1385.02 287.362 1383.86 306.148 1383.56 310.919C1383.09 310.926 1382.62 310.936 1382.16 310.943V310.963C1378.91 311.04 1375.77 311.173 1372.78 311.357C1372.53 308.302 1371.44 294.948 1371.35 290.668L1375.78 282.748C1376.23 282.811 1376.71 282.848 1377.19 282.848C1378.77 282.848 1380.27 282.5 1381.59 281.878L1378.61 276.564C1370.8 276.564 1364.47 270.414 1364.47 262.895C1364.47 260.088 1365.34 257.411 1366.96 255.139C1366.17 253.67 1365.79 252.03 1365.79 250.36C1365.79 250.113 1365.8 249.865 1365.81 249.621C1362.73 250.317 1360.3 252.532 1359.56 255.34C1358.32 254.737 1356.97 254.439 1355.48 254.439C1350.36 254.439 1346.21 258.448 1346.21 263.394C1346.21 265.167 1346.8 266.904 1347.84 268.343C1347.18 269.812 1346.84 271.418 1346.84 273.088C1346.84 279.706 1352.4 285.087 1359.25 285.087C1360.12 285.087 1360.94 284.986 1361.77 284.853L1367.27 294.312L1365.9 311.906C1352.87 313.185 1344.14 315.537 1344.14 318.241H1432.76C1432.76 315.534 1424.03 313.185 1411.01 311.906ZM1367.34 290.032L1364.05 284.183C1365.27 283.681 1366.4 283.012 1367.37 282.179C1367.41 282.146 1367.44 282.146 1367.48 282.112C1367.44 283.38 1367.37 288.128 1367.34 290.032ZM1371.18 281.543H1371.28C1371.94 281.878 1372.66 282.146 1373.42 282.313L1371.25 286.522C1371.21 285.351 1371.18 282.279 1371.18 281.543ZM1385.11 277.98L1382.69 273.295C1383.52 273.094 1384.35 272.793 1385.08 272.425H1385.18C1385.18 273.228 1385.15 276.675 1385.11 277.98ZM1389.34 273.061C1389.41 273.094 1389.44 273.094 1389.48 273.128C1390.58 274.065 1391.83 274.801 1393.18 275.37L1389.51 281.895C1389.44 279.753 1389.41 274.433 1389.34 273.061ZM1405.65 286.522L1403.47 282.313C1404.23 282.146 1404.96 281.878 1405.61 281.543H1405.72C1405.68 282.279 1405.68 285.351 1405.65 286.522ZM1409.42 282.112C1409.45 282.146 1409.49 282.146 1409.52 282.179C1410.49 283.012 1411.63 283.681 1412.84 284.183L1409.56 290.032C1409.52 288.128 1409.45 283.38 1409.42 282.112Z" fill="black"/>
<path d="M145.428 717.688H150.224L133.171 757.062H128.375L145.428 717.688ZM126.251 739.572C120.917 739.572 118.25 736.035 118.25 728.962C118.25 725.293 118.971 722.496 120.414 720.573C121.857 718.649 123.949 717.688 126.691 717.688C131.902 717.688 134.507 721.283 134.507 728.473C134.507 732.054 133.795 734.799 132.372 736.708C130.949 738.617 128.909 739.572 126.251 739.572ZM126.481 721.335C124.328 721.335 123.252 723.839 123.252 728.848C123.252 733.566 124.307 735.924 126.417 735.924C128.476 735.924 129.505 733.493 129.505 728.63C129.505 723.766 128.497 721.335 126.481 721.335ZM158.75 757.062H144.895V752.918H150.224V740.225L144.994 740.953V737.306L154.373 735.482L154.487 752.918H158.75V757.062Z" fill="black"/>
<path d="M1332.62 203.5C1336.58 205.042 1345.45 209.744 1349.25 216.219M1326.69 210.438C1332.23 213.52 1344.5 222.925 1349.25 235.875M1324.31 218.531C1327.08 221.23 1333.34 228.013 1336.19 233.563M1319.15 199.916L1317.55 192.319L1312.27 198.123L1305.08 197.444L1309.28 204.524L1305.14 210.627L1312.94 209.071L1318.9 214.216L1318.45 206.918L1325.72 202.829L1319.15 199.916Z" stroke="black" stroke-width="6.4375" stroke-linecap="round" stroke-linejoin="round"/>
<path d="M208.125 318.031H220.875M214.5 311.844V324.219M236.813 321.125H236.845M246.375 314.937H246.407M222.307 299.469H232.194C240.561 299.469 244.745 299.469 248.028 301.008C250.919 302.363 253.322 304.533 254.92 307.236C256.735 310.305 257.033 314.355 257.63 322.455L258.414 333.112C258.798 338.337 254.535 342.781 249.138 342.781C246.378 342.781 243.76 341.591 241.993 339.533L240.797 338.141C239.704 336.867 239.157 336.23 238.534 335.715C237.229 334.636 235.648 333.917 233.958 333.635C233.152 333.5 232.298 333.5 230.589 333.5H223.912C222.203 333.5 221.349 333.5 220.543 333.635C218.853 333.917 217.273 334.636 215.967 335.715C215.344 336.23 214.797 336.867 213.704 338.141L212.508 339.533C210.741 341.591 208.123 342.781 205.363 342.781C199.966 342.781 195.703 338.337 196.087 333.112L196.871 322.455C197.467 314.355 197.765 310.305 199.581 307.236C201.179 304.533 203.582 302.363 206.473 301.008C209.756 299.469 213.94 299.469 222.307 299.469Z" stroke="black" stroke-width="8.6875" stroke-linecap="round" stroke-linejoin="round"/>
<path d="M158 391.594V389.469C158 386.493 158 385.006 157.4 383.869C156.873 382.87 156.032 382.057 154.997 381.548C153.821 380.969 152.28 380.969 149.2 380.969H144.8C141.72 380.969 140.18 380.969 139.003 381.548C137.968 382.057 137.127 382.87 136.599 383.869C136 385.006 136 386.493 136 389.469V391.594M138.75 412.844V404.875M155.25 412.844V404.875M122.325 399.632C123.316 400.55 134.036 410.188 147 410.188C159.964 410.188 170.684 400.55 171.675 399.632M122.325 399.632C122.25 400.872 122.25 402.395 122.25 404.344V416.031C122.25 420.494 122.25 422.726 123.149 424.43C123.94 425.93 125.202 427.149 126.755 427.913C128.519 428.781 130.83 428.781 135.45 428.781H158.55C163.171 428.781 165.481 428.781 167.245 427.913C168.798 427.149 170.06 425.93 170.851 424.43C171.75 422.726 171.75 420.494 171.75 416.031V404.344C171.75 402.395 171.75 400.872 171.675 399.632M122.325 399.632C122.421 398.033 122.643 396.905 123.149 395.945C123.94 394.445 125.202 393.226 126.755 392.462C128.519 391.594 130.83 391.594 135.45 391.594H158.55C163.171 391.594 165.481 391.594 167.245 392.462C168.798 393.226 170.06 394.445 170.851 395.945C171.357 396.905 171.579 398.033 171.675 399.632" stroke="black" stroke-width="7.4375" stroke-linecap="round" stroke-linejoin="round"/>
</g>
<defs>
<filter id="filter0_d_83_68" x="0" y="0" width="1470" height="1017" filterUnits="userSpaceOnUse" color-interpolation-filters="sRGB">
<feFlood flood-opacity="0" result="BackgroundImageFix"/>
<feColorMatrix in="SourceAlpha" type="matrix" values="0 0 0 0 0 0 0 0 0 0 0 0 0 0 0 0 0 0 127 0" result="hardAlpha"/>
<feOffset dy="4"/>
<feGaussianBlur stdDeviation="2"/>
<feComposite in2="hardAlpha" operator="out"/>
<feColorMatrix type="matrix" values="0 0 0 0 0 0 0 0 0 0 0 0 0 0 0 0 0 0 0.25 0"/>
<feBlend mode="normal" in2="BackgroundImageFix" result="effect1_dropShadow_83_68"/>
<feBlend mode="normal" in="SourceGraphic" in2="effect1_dropShadow_83_68" result="shape"/>
</filter>
<filter id="filter1_d_83_68" x="118" y="203" width="72.75" height="71.25" filterUnits="userSpaceOnUse" color-interpolation-filters="sRGB">
<feFlood flood-opacity="0" result="BackgroundImageFix"/>
<feColorMatrix in="SourceAlpha" type="matrix" values="0 0 0 0 0 0 0 0 0 0 0 0 0 0 0 0 0 0 127 0" result="hardAlpha"/>
<feOffset dy="3"/>
<feGaussianBlur stdDeviation="1.5"/>
<feComposite in2="hardAlpha" operator="out"/>
<feColorMatrix type="matrix" values="0 0 0 0 0 0 0 0 0 0 0 0 0 0 0 0 0 0 0.25 0"/>
<feBlend mode="normal" in2="BackgroundImageFix" result="effect1_dropShadow_83_68"/>
<feBlend mode="normal" in="SourceGraphic" in2="effect1_dropShadow_83_68" result="shape"/>
</filter>
<linearGradient id="paint0_linear_83_68" x1="735" y1="0" x2="735" y2="1009" gradientUnits="userSpaceOnUse">
<stop offset="0.355" stop-color="white"/>
<stop offset="0.991094" stop-color="#F0ECD5"/>
</linearGradient>
<clipPath id="clip0_83_68">
<rect width="66.75" height="65.25" fill="white" transform="translate(121 203)"/>
</clipPath>
<clipPath id="clip1_83_68">
<rect width="66.75" height="64.5" fill="white" transform="translate(188 455)"/>
</clipPath>
<clipPath id="clip2_83_68">
<rect width="66.75" height="64.5" fill="white" transform="translate(188 634)"/>
</clipPath>
</defs>
</svg>
