<svg enable-background="new 0 0 122.88 100.33" version="1.1" viewBox="0 0 122.88 100.33" xmlSspace="preserve" xmlns="http://www.w3.org/2000/svg">

<style type="text/css"></style>
<path class="st0" d="m102.79 7.11 2.59 3.41c0.68 0.9 0.51 2.19-0.39 2.87l-2.75 2.09c0.5 1.33 0.82 2.75 0.95 4.2l3.13 0.43c1.12 0.15 1.9 1.19 1.75 2.31l-0.58 4.25c-0.15 1.12-1.19 1.91-2.31 1.75l-3.42-0.47c-0.61 1.33-1.39 2.55-2.31 3.64l1.92 2.52c0.68 0.9 0.5 2.19-0.4 2.87l-3.41 2.59c-0.9 0.68-2.19 0.5-2.87-0.39l-2.09-2.75c-1.34 0.5-2.75 0.82-4.21 0.95l-0.43 3.13c-0.15 1.12-1.19 1.9-2.31 1.75l-4.25-0.58c-1.12-0.15-1.9-1.19-1.75-2.31l0.47-3.42c-1.32-0.61-2.55-1.39-3.64-2.3l-2.52 1.91c-0.9 0.68-2.19 0.51-2.87-0.39l-2.59-3.41c-0.68-0.9-0.51-2.19 0.39-2.87l2.75-2.09c-0.5-1.34-0.82-2.75-0.95-4.2l-3.13-0.43c-1.12-0.15-1.91-1.19-1.75-2.31l0.58-4.25c0.16-1.12 1.19-1.9 2.31-1.75l3.42 0.47c0.61-1.32 1.39-2.55 2.3-3.64l-1.91-2.52c-0.68-0.89-0.51-2.18 0.39-2.86l3.41-2.59c0.9-0.68 2.19-0.51 2.87 0.39l2.09 2.75c1.33-0.5 2.75-0.82 4.2-0.95l0.43-3.13c0.15-1.12 1.19-1.91 2.31-1.76l4.25 0.58c1.12 0.15 1.91 1.19 1.75 2.31l-0.47 3.42c1.33 0.61 2.55 1.39 3.65 2.31l2.52-1.91c0.9-0.69 2.19-0.52 2.88 0.38zm-73.12 60.01v-16.5h8.5c1.58 0 2.78 0.13 3.61 0.41 0.83 0.27 1.51 0.77 2.01 1.5 0.51 0.74 0.77 1.63 0.77 2.68 0 0.91-0.2 1.71-0.59 2.37-0.39 0.67-0.93 1.21-1.61 1.62-0.43 0.26-1.03 0.48-1.79 0.65 0.61 0.21 1.05 0.4 1.32 0.61 0.19 0.14 0.46 0.43 0.81 0.87s0.59 0.79 0.71 1.03l2.48 4.77h-5.76l-2.72-5.03c-0.35-0.65-0.65-1.08-0.92-1.27-0.37-0.25-0.79-0.38-1.25-0.38h-0.45v6.68h-5.12v-0.01zm17.98 28.73h-9.52l-1.37 4.48h-8.58l10.23-27.19h9.2l10.19 27.19h-8.8l-1.35-4.48zm-1.78-5.89-2.97-9.78-2.98 9.78h5.95zm13.91-16.82h13.98c3.05 0 5.33 0.72 6.84 2.17s2.27 3.52 2.27 6.19c0 2.75-0.83 4.9-2.48 6.45s-4.18 2.32-7.57 2.32h-4.61v10.06h-8.43v-27.19zm8.43 11.62h2.07c1.63 0 2.78-0.28 3.44-0.85 0.66-0.56 0.99-1.29 0.99-2.16 0-0.85-0.29-1.58-0.86-2.17s-1.65-0.89-3.23-0.89h-2.41v6.07zm18.06-11.62h8.43v27.19h-8.43v-27.19zm-51.48-15.82h2.15c0.23 0 0.68-0.08 1.35-0.23 0.34-0.07 0.62-0.24 0.83-0.52 0.22-0.28 0.32-0.6 0.32-0.96 0-0.53-0.17-0.95-0.51-1.23-0.34-0.29-0.97-0.43-1.9-0.43h-2.24v3.37zm12.08-6.7h13.65v3.52h-8.53v2.63h7.91v3.36h-7.91v3.25h8.78v3.73h-13.9v-16.49zm15.11 11.04 4.84-0.3c0.1 0.79 0.32 1.38 0.64 1.79 0.53 0.66 1.28 1 2.25 1 0.72 0 1.29-0.17 1.68-0.51s0.59-0.74 0.59-1.19c0-0.43-0.19-0.81-0.56-1.15s-1.24-0.65-2.61-0.96c-2.23-0.5-3.82-1.17-4.78-2s-1.44-1.89-1.44-3.18c0-0.85 0.25-1.65 0.74-2.4s1.23-1.35 2.22-1.78 2.34-0.64 4.06-0.64c2.11 0 3.71 0.39 4.82 1.18 1.1 0.79 1.76 2.03 1.97 3.75l-4.79 0.29c-0.13-0.75-0.4-1.3-0.8-1.63-0.41-0.34-0.98-0.51-1.69-0.51-0.59 0-1.04 0.13-1.34 0.38s-0.45 0.56-0.45 0.92c0 0.26 0.13 0.49 0.37 0.71 0.24 0.21 0.8 0.42 1.7 0.61 2.23 0.48 3.83 0.97 4.79 1.46s1.67 1.1 2.1 1.83c0.44 0.72 0.66 1.54 0.66 2.44 0 1.06-0.29 2.03-0.88 2.92-0.58 0.89-1.4 1.57-2.45 2.03s-2.37 0.69-3.97 0.69c-2.8 0-4.75-0.54-5.83-1.62-1.08-1.1-1.69-2.47-1.84-4.13zm15.71-11.04h15.51v4.08h-5.2v12.42h-5.1v-12.42h-5.21v-4.08zm-17.16-39.16c-1.83-0.14-3.68-0.12-5.51 0.06-5.63 0.54-11.1 2.59-15.62 6.1-5.23 4.05-9.2 10.11-10.73 18.14l-0.48 2.51-2.5 0.44c-2.45 0.43-4.64 1.02-6.56 1.77-1.86 0.72-3.52 1.61-4.97 2.66-1.16 0.84-2.16 1.78-3.01 2.8-2.63 3.15-3.85 7.1-3.82 11.1 0.03 4.06 1.35 8.16 3.79 11.53 0.91 1.25 1.96 2.4 3.16 3.4 1.22 1.01 2.59 1.85 4.13 2.48 0.87 0.36 1.8 0.66 2.77 0.9v7.49c-2-0.36-3.84-0.9-5.56-1.61-2.27-0.94-4.28-2.15-6.05-3.63-1.68-1.4-3.15-2.99-4.4-4.72-3.33-4.6-5.13-10.22-5.17-15.82-0.04-5.66 1.72-11.29 5.52-15.85 1.23-1.48 2.68-2.84 4.34-4.04 1.93-1.4 4.14-2.58 6.64-3.55 1.72-0.67 3.56-1.23 5.5-1.68 2.2-8.74 6.89-15.47 12.92-20.14 5.64-4.37 12.43-6.92 19.42-7.59 3.67-0.35 7.39-0.19 11.03 0.49-0.08 0.33-0.15 0.66-0.19 1l-0.01 0.06c-0.07 0.57-0.1 1.14-0.07 1.72-0.77 0.3-1.49 0.71-2.14 1.21l-0.03 0.02c-0.97 0.73-1.79 1.67-2.4 2.75zm52.91 19.2c0.56 0.51 1.1 1.04 1.63 1.61 1.07 1.15 2.08 2.45 3.03 3.9 3.2 4.92 4.84 11.49 4.77 17.92-0.07 6.31-1.77 12.59-5.25 17.21-2.27 3.01-5.18 5.47-8.67 7.42-2.39 1.34-5.08 2.45-8.01 3.35v-7.75c1.58-0.59 3.05-1.25 4.4-2 2.63-1.47 4.78-3.26 6.39-5.41 2.5-3.33 3.73-8.04 3.78-12.87 0.06-5.07-1.18-10.16-3.59-13.86-0.69-1.07-1.45-2.03-2.25-2.89-0.31-0.33-0.62-0.64-0.94-0.94 0.05-0.5 0.07-1.01 0.04-1.52 0.77-0.3 1.49-0.71 2.14-1.21l0.03-0.02c1.03-0.79 1.89-1.79 2.5-2.94zm-25.36-17.86c4.61 0.63 7.83 4.88 7.2 9.49s-4.88 7.84-9.49 7.21-7.84-4.88-7.2-9.49 4.88-7.84 9.49-7.21z"/>
</svg>
